<?xml version="1.0" encoding="utf-8" ?><svg xmlns="http://www.w3.org/2000/svg" xmlns:xlink="http://www.w3.org/1999/xlink" width="1980" height="1080" viewBox="0 0 1980 1080"><path fill="#A21A2D" transform="scale(2.92467 2.92683)" d="M334.303 48.8038C336.158 48.6687 337.987 48.5151 339.848 48.4081C347.428 47.9725 355.334 52.841 357.158 60.4408C357.666 62.5583 357.667 64.1864 357.704 66.3508C351.669 63.6846 346.823 62.4713 340.025 63.6207C340.578 64.6942 348.86 65.1098 350.54 65.3178C359.354 66.4091 359.719 72.0624 365.904 74.9743C369.127 76.4921 376.601 74.5318 380.75 77.1045C386.66 80.0276 384.319 88.1692 388.386 91.6401C391.705 94.4725 394.123 90.6351 395.679 88.3824C395.104 90.3146 394.614 93.2707 392.588 94.1672C384.787 97.4646 384.218 89.0944 381.702 84.8415C377.53 77.7899 367.179 83.4909 359.993 81.425C357.595 79.9976 356.56 79.0986 354.604 77.1021C356.063 79.4959 356.802 80.7303 359.204 82.3289L359.523 82.5128C366.286 86.3683 371.85 81.1684 378.049 85.3774C381.695 88.113 381.099 93.2469 384.905 95.9903C388.785 98.787 392.93 99.1809 394.5 104.295C396.303 110.172 392.144 113.737 390.088 118.964C392.788 123.122 393.834 122.557 397.897 120.537C396.874 122.926 396.151 124.623 393.522 125.683C392.005 126.29 390.302 126.238 388.825 125.537C386.276 124.353 385.402 122.666 384.308 120.235C385.596 115.523 388.435 109.815 384.25 106.061C382.05 103.866 379.244 103.386 376.964 101.325C375.057 99.6026 374.637 96.5356 373.11 94.6952C374.114 100.352 375.128 102.776 380.497 105.624C381.405 106.106 382.568 107.172 383.201 107.478C387.455 115.406 378.056 118.221 382.601 125.988C386.93 128.7 388.456 128.352 391.106 133.212C390.987 138.204 389.897 139.189 385.891 142.334C382.631 144.894 383.648 145.652 384.99 148.89C382.692 149.562 379.684 145.853 380.212 143.643C380.728 141.481 382.217 139.161 381.623 136.947C380.683 135.256 375.775 134.282 373.188 133.047C372.622 131.079 372.169 129.482 371.798 127.454C369.92 117.195 372.57 103.403 361.402 97.931C348.436 92.961 348.301 95.0423 344.056 81.3013C344.087 89.6807 345.121 93.6887 353.234 97.2854C348.247 99.9455 343.949 104.196 339.462 107.66C336.058 110.288 333.342 111.972 329.549 113.932C327.58 114.528 325.95 115.432 324.122 116.359C326.672 115.76 328.968 115.168 331.365 114.067C338.051 111.63 345.377 105.156 350.821 100.614C346.412 107.946 343.618 110.742 338.15 116.843C344.402 112.517 347.842 107.988 352.325 101.992C349.062 111.647 348.042 116.658 351.612 126.522C350.856 119.925 349.576 95.5305 361.937 100.072C366.054 103.254 368.032 108.154 368.317 113.206C368.667 119.406 370.126 126.4 370.388 132.444C370.818 142.377 375.263 149.386 377.281 158.66C378.905 166.12 378.003 174.915 380.51 182.307C381.788 186.52 389.269 190.912 391.406 194.996C392.638 197.35 393.234 199.596 393.786 202.178C394.175 203.996 394.997 206.765 394.888 208.54L394.484 208.959C392.781 208.383 391.745 206.365 390.88 204.867C390.834 206.606 390.932 208.695 390.028 210.181L389.45 210.167C387.809 207.39 388.01 203.296 387.984 200.154C385.333 197.322 384.938 197.047 381.315 195.638C382.389 197.691 385.25 202.452 384.294 204.712L383.726 204.935C382.061 204.1 375.63 195.339 375.317 193.9C374.361 189.511 374.026 185.929 372.689 181.306C371.071 175.711 367.108 170.239 365.569 165.41C361.964 154.103 359.601 140.605 357.429 128.865C354.986 135.597 351.808 141.574 349.163 148.067C348.285 150.224 352.974 156.628 354.048 158.497C356.615 163.069 359.379 167.746 360.784 172.814C365.257 188.662 358.911 205.139 368.359 219.923C370.123 223.451 371.69 225.136 374.158 228.122C374.821 228.901 377.993 232.029 378.769 232.119C377.545 230.543 376.49 229.351 375.16 227.883C372.554 224.44 371.283 222.224 369.436 218.326C366.457 210.541 364.977 203.53 364.955 195.125C370.123 210.774 378.336 218.916 392.921 225.771C400.41 229.291 406.875 231.959 409.773 240.62C411.213 244.926 411.484 250.339 409.383 254.525C406.161 260.943 399.31 262.237 396.661 269.289C389.877 246.872 378.877 245.026 363.861 229.393C359.069 224.404 354.106 213.685 351.56 207.099C353.611 220.307 361.966 233.566 372.757 241.014C384.213 248.922 391.059 257.121 393.698 270.774C394.397 274.39 399.449 277.833 395.896 281.917C392.859 286.444 380.765 291.42 376.24 287.451C372.196 283.904 373.268 281.082 366.653 278.678C374.035 274.874 384.649 271.814 380.628 284.747C383.39 281.595 383.911 278.443 383.738 274.318C383.671 272.736 382.71 268.379 381.471 267.407C373.309 251.685 362.856 253.098 350.004 242.78C346.864 240.259 345.235 237.787 342.912 234.595L342.602 234.598C344.821 241.676 352.114 247.693 358.476 250.836C367.073 255.084 373.849 258.622 378.913 267.1C378.927 267.115 378.941 267.13 378.955 267.145C379.397 268.865 380.571 272.033 381.158 273.946C380.452 273.773 379.743 273.611 379.032 273.459C372.471 272.068 366.873 276.027 361.577 279.489C363.905 286.09 364.498 289.892 370.586 294.043C375.307 297.507 370.044 304.829 369.166 308.693C367.412 316.407 364.882 322.369 355.801 321.889C354.129 321.801 350.458 322.171 350.61 319.758C351.388 318.432 353.828 317.158 355.264 316.184C356.15 314.39 356.37 313.256 356.661 311.343C359.229 295.287 351.375 284.143 342.316 272.105C336.007 263.722 329.439 256.105 322.505 249.261C317.496 244.316 321.966 220.143 323.118 212.458C324.453 204.707 326.388 197.071 328.904 189.619C329.877 186.654 332.578 179.565 333.123 177.082L332.888 177.037C327.463 188.566 324.472 196.875 321.798 209.329C320.301 214.436 319.451 223.065 318.756 228.672C312.56 211.828 309.542 187.47 313.45 169.83C314.992 162.866 317.271 157.52 319.135 151.07C320.308 147.01 319.673 136.363 317.893 132.422C317.078 130.617 315.353 127.925 314.195 126.145C314.203 123.621 314.242 121.549 314.431 119.034C317.829 114.53 320.773 112.949 324.828 107.02C322.824 108.61 321.031 110.72 319.3 112.631C321.271 101.125 321.572 100.765 332.082 97.5249C336.472 96.1715 335.007 91.4914 333.116 88.2681C330.832 87.6218 324.551 90.3623 323.653 88.0929C322.075 84.1017 320.935 80.7361 318.666 77.0106C321.5 72.4929 321.391 70.2893 321.146 65.0851C321.375 63.3345 318.951 61.8812 318.793 60.2746C318.294 55.1669 321.191 52.4794 326.175 53.3668C332.943 54.572 338.684 58.3386 344.153 62.1807C340.152 55.4567 339.396 54.6229 334.303 48.8038ZM331.753 66.1074C333.06 68.4366 335.249 73.7463 337.923 74.3779C340.512 74.9894 344.771 76.3122 346.665 78.3384C347.252 78.9665 348.17 80.6995 348.811 81.1034C347.579 72.6443 340.622 75.7518 336.029 70.9408C334.743 69.5943 333.656 66.7601 332.44 65.1391C330.446 64.2075 328.338 63.3007 326.43 62.2219C325.444 61.6643 324.957 60.8473 324.229 60.4138C325.419 64.6088 328.405 64.2988 331.753 66.1074ZM331.663 132.396C335.996 134.051 339.717 134.022 343.165 130.757L343.149 130.391L343.117 130.373C337.825 132.927 337.173 132.696 331.544 132.041L331.567 132.317L331.663 132.396Z"/><path fill="#50080F" fill-opacity="0.015686275" transform="scale(2.92467 2.92683)" d="M324.229 60.4138C324.957 60.8473 325.444 61.6643 326.43 62.2219C328.338 63.3007 330.446 64.2075 332.44 65.1391C333.656 66.7601 334.743 69.5943 336.029 70.9408C340.622 75.7518 347.579 72.6443 348.811 81.1034C348.17 80.6995 347.252 78.9665 346.665 78.3384C344.771 76.3122 340.512 74.9894 337.923 74.3779C335.249 73.7463 333.06 68.4366 331.753 66.1074C328.405 64.2988 325.419 64.6088 324.229 60.4138Z"/><path fill="#801728" fill-opacity="0.035294119" transform="scale(2.92467 2.92683)" d="M343.117 130.373L343.149 130.391L343.165 130.757C339.717 134.022 335.996 134.051 331.663 132.396L331.567 132.317L331.544 132.041C337.173 132.696 337.825 132.927 343.117 130.373Z"/><path fill="#A21A2D" transform="scale(2.92467 2.92683)" d="M277.648 86.5217C276.828 85.6741 275.849 84.6722 275.117 83.763C273.507 81.764 271.504 75.976 274.057 74.0761C277.67 74.2506 278.037 81.6902 278.066 84.4458C278.337 84.8436 278.611 85.2916 278.945 85.6311C278.924 86.33 278.858 87.3256 278.953 87.9912C278.693 90.1593 278.259 93.8197 278.7 95.9464C278.769 96.3957 278.876 97.4534 279.071 97.7976C279.399 100.211 279.873 102.922 280.519 105.268C282.017 99.3568 283.516 95.4613 290.035 93.7931C289.446 96.0025 288.754 99.2586 287.546 101.11C286.378 102.899 281.758 104.849 281.491 106.884C283.926 109.113 290.561 111.626 293.348 114.026C296.365 116.624 297.659 120.81 300.025 123.685C303.59 128.014 308.06 131.893 311.866 135.997C312.682 133.447 313.142 131.98 314.528 129.61C315.34 130.882 316.585 132.704 316.848 134.28C317.475 138.031 318.947 145.878 317.146 149.22C316.491 150.436 314.004 151.559 312.778 152.076C301.295 147.714 298.094 133.291 292.039 124.319C290.508 123.458 290.001 123.11 288.252 122.938L287.457 123.849L287.012 123.626C285.233 121.655 281.497 122.556 278.858 119.626C277.128 117.704 271.681 107.849 274.062 105.89C275.785 106.658 276.761 108.832 277.595 110.454C277.918 104.903 280.595 104.162 273.972 102.381C270.078 101.334 267.452 97.1064 265.731 93.6415C272.305 95.462 273.625 95.5689 277.822 101.395C277.613 99.1902 277.617 96.7535 276.581 94.8749C277.089 94.1603 277.115 94.0484 277.269 93.1819L277.648 86.5217Z"/><path fill="#A21A2D" transform="scale(2.92467 2.92683)" d="M329.249 259.405C330.96 260.374 346.823 280.584 348.366 283.205C347.744 288.424 346.39 299.198 346.85 303.218C348.74 319.716 352.939 320.359 334.185 320.14C332.758 320.124 329.622 320.619 327.937 320.966C324.444 321.638 321.025 321.565 317.486 321.581C315.455 321.59 313.37 321.399 313.246 318.91C314.521 316.775 318.376 317.559 320.153 316.547C324.928 313.826 330.404 310.051 334.778 306.785C338.73 294.268 330.088 272.638 329.249 259.405Z"/><path fill="#801728" fill-opacity="0.015686275" transform="scale(2.92467 2.92683)" d="M344.056 81.3013C348.301 95.0423 348.436 92.961 361.402 97.931L362.185 99.3708L361.937 100.072C349.576 95.5305 350.856 119.925 351.612 126.522C348.042 116.658 349.062 111.647 352.325 101.992C347.842 107.988 344.402 112.517 338.15 116.843C343.618 110.742 346.412 107.946 350.821 100.614C345.377 105.156 338.051 111.63 331.365 114.067L329.549 113.932C333.342 111.972 336.058 110.288 339.462 107.66C343.949 104.196 348.247 99.9455 353.234 97.2854C345.121 93.6887 344.087 89.6807 344.056 81.3013Z"/><path fill="#50080F" fill-opacity="0.011764706" transform="scale(2.92467 2.92683)" d="M378.955 267.145C378.941 267.13 378.927 267.115 378.913 267.1C373.849 258.622 367.073 255.084 358.476 250.836C352.114 247.693 344.821 241.676 342.602 234.598L342.912 234.595C345.235 237.787 346.864 240.259 350.004 242.78C362.856 253.098 373.309 251.685 381.471 267.407C380.492 267.346 380.203 267.367 379.316 266.97L378.955 267.145Z"/><path fill="#A21A2D" transform="scale(2.92467 2.92683)" d="M278.066 84.4458C281.104 78.998 278.067 73.7614 283.624 69.1848C284.55 68.422 284.728 68.3372 285.775 68.4036C287.663 70.778 285.494 75.7738 283.68 77.7611L283.478 77.9792C279.616 81.0887 280.941 81.6287 279.14 85.2794L278.945 85.6311C278.611 85.2916 278.337 84.8436 278.066 84.4458Z"/><path fill="#A21A2D" transform="scale(2.92467 2.92683)" d="M327.694 46.0491C330.802 47.0147 337.363 53.5119 338.902 56.458L338.587 56.8718L337.987 56.5295C335.057 54.4491 329.094 51.7544 325.47 51.6593C326.146 49.1932 326.574 48.2599 327.694 46.0491Z"/><path fill="#50080F" fill-opacity="0.011764706" transform="scale(2.92467 2.92683)" d="M321.798 209.329C324.472 196.875 327.463 188.566 332.888 177.037L333.123 177.082C332.578 179.565 329.877 186.654 328.904 189.619C326.388 197.071 324.453 204.707 323.118 212.458C322.938 211.008 322.583 210.58 321.798 209.329Z"/><path fill="#801728" transform="scale(2.92467 2.92683)" d="M267.885 82.5913C273.732 85.9666 274.7 86.5261 276.669 92.8977L277.269 93.1819C277.115 94.0484 277.089 94.1603 276.581 94.8749C270.192 92.1304 269.239 88.8029 267.885 82.5913Z"/><path fill="#801728" transform="scale(2.92467 2.92683)" d="M278.7 95.9464C279.651 94.5937 279.511 94.1434 280.152 92.7789C282.005 88.8347 284.596 87.53 288.631 86.2917C286.124 96.1821 280.742 94.0591 279.071 97.7976C278.876 97.4534 278.769 96.3957 278.7 95.9464Z"/><path fill="#801728" transform="scale(2.92467 2.92683)" d="M284.047 80.2212C285.328 79.5652 287.398 78.5949 288.851 78.934C291.71 82.5201 282.337 86.4643 279.777 86.9013C279.667 86.9201 279.036 87.8117 278.953 87.9912C278.858 87.3256 278.924 86.33 278.945 85.6311L279.14 85.2794C279.369 85.2876 279.598 85.2959 279.826 85.3041C281.119 83.4088 282.401 81.8194 284.047 80.2212Z"/><path fill="#801728" fill-opacity="0.011764706" transform="scale(2.92467 2.92683)" d="M373.11 94.6952C374.637 96.5356 375.057 99.6026 376.964 101.325C379.244 103.386 382.05 103.866 384.25 106.061C383.815 106.542 383.436 106.876 383.201 107.478C382.568 107.172 381.405 106.106 380.497 105.624C375.128 102.776 374.114 100.352 373.11 94.6952Z"/><path fill="#50080F" transform="scale(2.92467 2.92683)" d="M287.012 123.626L287.457 123.849L288.252 122.938C288.824 125.199 290.216 130.078 288.981 132.157C287.479 131.626 286.943 125.148 287.012 123.626Z"/><path fill="#50080F" fill-opacity="0.023529412" transform="scale(2.92467 2.92683)" d="M369.436 218.326C371.283 222.224 372.554 224.44 375.16 227.883L374.158 228.122C371.69 225.136 370.123 223.451 368.359 219.923C368.421 219.394 368.469 218.864 368.504 218.333L369.436 218.326Z"/><path fill="#801728" fill-opacity="0.011764706" transform="scale(2.92467 2.92683)" d="M279.14 85.2794C280.941 81.6287 279.616 81.0887 283.478 77.9792C284.533 80.0411 283.632 79.3725 284.047 80.2212C282.401 81.8194 281.119 83.4088 279.826 85.3041C279.598 85.2959 279.369 85.2876 279.14 85.2794Z"/><path fill="#50080F" fill-opacity="0.098039217" transform="scale(2.92467 2.92683)" d="M359.204 82.3289C356.802 80.7303 356.063 79.4959 354.604 77.1021C356.56 79.0986 357.595 79.9976 359.993 81.425L359.204 82.3289Z"/><path fill="#50080F" fill-opacity="0.23529412" transform="scale(2.92467 2.92683)" d="M375.16 227.883C376.49 229.351 377.545 230.543 378.769 232.119C377.993 232.029 374.821 228.901 374.158 228.122L375.16 227.883Z"/><path fill="#801728" fill-opacity="0.14117648" transform="scale(2.92467 2.92683)" d="M324.122 116.359C325.95 115.432 327.58 114.528 329.549 113.932L331.365 114.067C328.968 115.168 326.672 115.76 324.122 116.359Z"/></svg>